# xmcd CD database file
#
# Track frame offsets:
#	150
#	18721
#	33840
#	49577
#	64224
#	82112
#	91956
#	102558
#	117805
#	130027
#
# Disc length: 1982 seconds
#
# Revision: 0
# Processed by: cddbd v1.5.2PL0 Copyright (c) Steve Scherf et al.
# Submitted via: CDex 1.51
#
DISCID=8007bc0a
DTITLE=Luke Bell - Luke Bell
DYEAR=2016
DGENRE=Country
TTITLE0=Sometimes
TTITLE1=All Blue
TTITLE2=Where Ya Been?
TTITLE3=Hold Me
TTITLE4=Loretta
TTITLE5=Working Man's Dream
TTITLE6=Glory and The Grace
TTITLE7=The Bullfighter
TTITLE8=Ragtime Troubles
TTITLE9=Luke Bell - The Great Pretender
EXTD=YEAR: 2016
EXTT0=
EXTT1=
EXTT2=
EXTT3=
EXTT4=
EXTT5=
EXTT6=
EXTT7=
EXTT8=
EXTT9=
PLAYORDER=
